<svg xmlns="http://www.w3.org/2000/svg" width="1024" height="1024" fill="none"><g clip-path="url(#a)"><circle cx="512" cy="512" r="472" fill="#fff" stroke="red" stroke-width="80"/><path fill="#000" d="M741 756.557q-11.834 14.493-32.433 29.425t-48.648 26.789q-28.488 12.297-63.551 19.763Q561.307 840 520.985 840q-35.062 0-66.18-8.344-30.68-7.905-56.538-23.276-25.42-15.81-46.457-38.647-20.6-22.837-35.063-52.262-16.654-32.499-25.42-73.341Q283 603.287 283 555.417v-86.956q0-45.673 8.327-84.76 8.328-39.525 23.667-71.585 14.463-28.545 33.309-51.383 19.284-22.836 42.075-39.525 26.735-18.885 58.291-28.546Q480.224 183 515.287 183q53.909 0 93.791 13.614 40.323 13.615 67.933 39.087 27.612 25.91 42.952 62.801 15.778 36.89 20.599 83.003H620.474q-3.069-23.276-9.642-41.282-6.137-18.006-17.093-30.303-12.272-13.614-31.118-20.201-18.408-7.027-44.266-7.027-14.025 0-27.173 4.392-13.149 4.391-24.544 12.736-14.901 11.418-27.173 29.863-11.834 18.446-19.722 43.478-6.136 19.323-9.643 43.039-3.067 23.715-3.067 51.383v87.834q0 34.695 4.382 63.241 4.821 28.546 13.149 50.504 5.259 12.736 11.833 23.716 7.012 10.54 15.34 18.884 14.025 14.053 32.432 21.519 18.846 7.028 42.513 7.466 14.463 0 28.488-2.195 14.025-2.196 26.297-6.149t21.476-8.783q9.642-5.27 14.463-10.98l.438-115.941H512.219v-92.226h228.343z"/><path fill="red" d="M146 822.118 822.118 146l56.568 56.569L202.57 878.687z"/></g><defs><clipPath id="a"><path fill="#fff" d="M0 0h1024v1024H0z"/></clipPath></defs></svg>